<?xml version="1.0" encoding="utf-8"?>
<!-- Generator: Adobe Illustrator 23.0.1, SVG Export Plug-In . SVG Version: 6.00 Build 0)  -->
<svg version="1.1" id="Layer_119" xmlns="http://www.w3.org/2000/svg" xmlns:xlink="http://www.w3.org/1999/xlink" x="0px" y="0px"
	 viewBox="0 0 111.53 117" style="enable-background:new 0 0 111.53 117;" xml:space="preserve">
<style type="text/css">
	.st0{fill:#666F74;}
</style>
<g>
	<path class="st0" d="M55.77,81c-12.41,0-22.5-10.09-22.5-22.5S43.36,36,55.77,36s22.5,10.09,22.5,22.5S68.17,81,55.77,81z
		 M55.77,45c-7.44,0-13.5,6.06-13.5,13.5S48.32,72,55.77,72s13.5-6.06,13.5-13.5S63.21,45,55.77,45z"/>
</g>
<g>
	<path class="st0" d="M73.77,28.21c-1.69,0-3.31-0.96-4.08-2.59L61.9,9H49.37l-9.7,16.94c-1.24,2.16-3.98,2.9-6.14,1.67
		c-2.16-1.24-2.9-3.99-1.67-6.14l11-19.21c0.8-1.4,2.29-2.26,3.9-2.26h18c1.75,0,3.33,1.01,4.07,2.59l9,19.21
		c1.05,2.25,0.08,4.93-2.17,5.98C75.06,28.07,74.41,28.21,73.77,28.21z"/>
</g>
<g>
	<path class="st0" d="M17.02,63c-1.47,0-2.91-0.72-3.77-2.04L0.73,41.75c-0.93-1.42-0.98-3.24-0.13-4.71l9-15.59
		c0.8-1.39,2.29-2.25,3.9-2.25h22.27c2.49,0,4.5,2.01,4.5,4.5s-2.01,4.5-4.5,4.5H16.1L9.78,39.15l11.01,16.89
		c1.36,2.08,0.77,4.87-1.31,6.23C18.71,62.76,17.86,63,17.02,63z"/>
</g>
<g>
	<path class="st0" d="M37.77,97.79H13.5c-1.61,0-3.09-0.86-3.9-2.25l-9-15.59c-0.85-1.47-0.8-3.29,0.13-4.71l12.52-19.21
		c1.36-2.08,4.14-2.67,6.23-1.31c2.08,1.36,2.67,4.15,1.31,6.23L9.78,77.85l6.32,10.95h21.67c2.49,0,4.5,2.01,4.5,4.5
		S40.25,97.79,37.77,97.79z"/>
</g>
<g>
	<path class="st0" d="M64.77,117h-18c-1.75,0-3.33-1.01-4.08-2.59l-9-19.21c-1.06-2.25-0.08-4.93,2.17-5.98
		c2.25-1.05,4.93-0.09,5.98,2.17L49.63,108H61.9l7.78-16.61c1.06-2.25,3.74-3.22,5.98-2.17c2.25,1.06,3.22,3.73,2.17,5.98l-9,19.21
		C68.1,115.99,66.51,117,64.77,117z"/>
</g>
<g>
	<path class="st0" d="M98.03,97.79H73.76c-2.49,0-4.5-2.01-4.5-4.5s2.01-4.5,4.5-4.5h21.67l6.31-10.92L90.52,60.99
		c-1.38-2.07-0.81-4.86,1.26-6.24c2.07-1.38,4.86-0.81,6.24,1.26l12.77,19.21c0.95,1.42,1,3.26,0.15,4.74l-9,15.59
		C101.13,96.94,99.64,97.79,98.03,97.79z"/>
</g>
<g>
	<path class="st0" d="M94.26,63c-0.86,0-1.72-0.24-2.49-0.75c-2.07-1.38-2.63-4.17-1.26-6.24l11.22-16.88l-6.31-10.92H73.77
		c-2.49,0-4.5-2.01-4.5-4.5s2.01-4.5,4.5-4.5h24.27c1.61,0,3.09,0.86,3.9,2.25l9,15.59c0.85,1.48,0.8,3.32-0.15,4.74l-12.77,19.2
		C97.15,62.29,95.72,63,94.26,63z"/>
</g>
</svg>
