<?xml version="1.0" encoding="utf-8"?>
<!-- Generator: Adobe Illustrator 23.0.1, SVG Export Plug-In . SVG Version: 6.00 Build 0)  -->
<svg version="1.1" id="Layer_9" xmlns="http://www.w3.org/2000/svg" xmlns:xlink="http://www.w3.org/1999/xlink" x="0px" y="0px"
	 viewBox="0 0 73 63" style="enable-background:new 0 0 73 63;" xml:space="preserve">
<style type="text/css">
	.st0{fill:#666F74;}
</style>
<g>
	<path class="st0" d="M68.5,9h-64C2.02,9,0,6.99,0,4.5S2.02,0,4.5,0h64C70.99,0,73,2.02,73,4.5S70.99,9,68.5,9z"/>
</g>
<g>
	<path class="st0" d="M68.5,36h-64C2.02,36,0,33.99,0,31.5S2.02,27,4.5,27h64c2.49,0,4.5,2.01,4.5,4.5S70.99,36,68.5,36z"/>
</g>
<g>
	<path class="st0" d="M68.5,63h-64C2.02,63,0,60.99,0,58.5S2.02,54,4.5,54h64c2.49,0,4.5,2.01,4.5,4.5S70.99,63,68.5,63z"/>
</g>
</svg>
