<?xml version="1.0" encoding="utf-8"?>
<!-- Generator: Adobe Illustrator 23.0.1, SVG Export Plug-In . SVG Version: 6.00 Build 0)  -->
<svg version="1.1" id="Layer_60_copy_8" xmlns="http://www.w3.org/2000/svg" xmlns:xlink="http://www.w3.org/1999/xlink" x="0px"
	 y="0px" viewBox="0 0 126 126" style="enable-background:new 0 0 126 126;" xml:space="preserve">
<style type="text/css">
	.st0{fill:#666F75;}
</style>
<path class="st0" d="M63,0C28.21,0,0,28.21,0,63s28.21,63,63,63s63-28.21,63-63S97.79,0,63,0z M94.6,94.6
	c-1.27,1.27-2.93,1.9-4.6,1.9c-1.66,0-3.33-0.63-4.6-1.9l-27-27c-1.76-1.76-2.36-4.37-1.55-6.72l10-29c1.17-3.39,4.86-5.2,8.26-4.03
	c3.39,1.17,5.2,4.87,4.03,8.26l-8.67,25.16L94.6,85.4C97.13,87.94,97.13,92.06,94.6,94.6z"/>
</svg>
