<?xml version="1.0" encoding="utf-8"?>
<!-- Generator: Adobe Illustrator 23.0.1, SVG Export Plug-In . SVG Version: 6.00 Build 0)  -->
<svg version="1.1" id="Arrow_x5F_up_copy" xmlns="http://www.w3.org/2000/svg" xmlns:xlink="http://www.w3.org/1999/xlink" x="0px"
	 y="0px" viewBox="0 0 99 108" style="enable-background:new 0 0 99 108;" xml:space="preserve">
<style type="text/css">
	.st0{fill:#666F74;}
</style>
<g>
	<path class="st0" d="M85.5,45c-1.15,0-2.3-0.44-3.18-1.32L49.5,10.86L16.68,43.68c-1.76,1.76-4.61,1.76-6.36,0
		c-1.76-1.76-1.76-4.61,0-6.36l36-36c1.76-1.76,4.61-1.76,6.36,0l36,36c1.76,1.76,1.76,4.61,0,6.36C87.8,44.56,86.65,45,85.5,45z"/>
</g>
<g>
	<path class="st0" d="M49.5,81c-2.49,0-4.5-2.01-4.5-4.5v-72C45,2.02,47.01,0,49.5,0S54,2.02,54,4.5v72C54,78.99,51.99,81,49.5,81z"
		/>
</g>
<g>
	<path class="st0" d="M94.5,108h-90c-2.48,0-4.5-2.01-4.5-4.5v-9C0,92.01,2.02,90,4.5,90S9,92.01,9,94.5V99h81v-4.5
		c0-2.49,2.01-4.5,4.5-4.5s4.5,2.01,4.5,4.5v9C99,105.99,96.99,108,94.5,108z"/>
</g>
</svg>
