<?xml version="1.0" encoding="utf-8"?>
<!-- Generator: Adobe Illustrator 23.0.1, SVG Export Plug-In . SVG Version: 6.00 Build 0)  -->
<svg version="1.1" id="Layer_1" xmlns="http://www.w3.org/2000/svg" xmlns:xlink="http://www.w3.org/1999/xlink" x="0px" y="0px"
	 viewBox="0 0 98 79" style="enable-background:new 0 0 98 79;" xml:space="preserve">
<style type="text/css">
	.st0{fill:#666F74;}
</style>
<g>
	<path class="st0" d="M12,0h56c1.66,0,3,1.34,3,3v45c0,1.66-1.34,3-3,3h-9.73L32.16,78.08C31.59,78.67,30.81,79,30,79h-0.01
		c-0.82,0-1.6-0.34-2.16-0.94l-9-9.5c-0.86-0.91-1.07-2.25-0.52-3.38L25.2,51H3c-0.9,0-1.75-0.4-2.32-1.1
		c-0.57-0.69-0.8-1.61-0.62-2.49l9-45C9.34,1.01,10.57,0,12,0z"/>
</g>
<g>
	<path class="st0" d="M86,0h9c1.66,0,3,1.34,3,3v45c0,1.66-1.34,3-3,3h-9c-1.66,0-3-1.34-3-3V3C83,1.34,84.34,0,86,0z"/>
</g>
</svg>
