<?xml version="1.0" encoding="utf-8"?>
<!-- Generator: Adobe Illustrator 23.0.1, SVG Export Plug-In . SVG Version: 6.00 Build 0)  -->
<svg version="1.1" id="Layer_17" xmlns="http://www.w3.org/2000/svg" xmlns:xlink="http://www.w3.org/1999/xlink" x="0px" y="0px"
	 viewBox="0 0 81 123" style="enable-background:new 0 0 81 123;" xml:space="preserve">
<style type="text/css">
	.st0{fill:#666F74;}
</style>
<path class="st0" d="M76.5,61h-5.24l-7.38-41h3.62c2.48,0,4.5-2.02,4.5-4.5v-11C72,2.02,69.98,0,67.5,0h-54C11.02,0,9,2.02,9,4.5v11
	c0,2.48,2.02,4.5,4.5,4.5h3.62L9.74,61H4.5C2.02,61,0,63.01,0,65.5v11C0,78.98,2.02,81,4.5,81h72c2.48,0,4.5-2.02,4.5-4.5v-11
	C81,63.02,78.98,61,76.5,61z M36,54c0,2.48-2.02,4.5-4.5,4.5S27,56.48,27,54V27c0-2.48,2.02-4.5,4.5-4.5S36,24.51,36,27V54z"/>
<g>
	<path class="st0" d="M40.5,123c-3.04,0-5.5-2.46-5.5-5.5v-25c0-3.04,2.46-5.5,5.5-5.5c3.04,0,5.5,2.46,5.5,5.5v25
		C46,120.54,43.54,123,40.5,123z"/>
</g>
</svg>
