<?xml version="1.0" encoding="utf-8"?>
<!-- Generator: Adobe Illustrator 23.0.1, SVG Export Plug-In . SVG Version: 6.00 Build 0)  -->
<svg version="1.1" id="Layer_2" xmlns="http://www.w3.org/2000/svg" xmlns:xlink="http://www.w3.org/1999/xlink" x="0px" y="0px"
	 viewBox="0 0 98 79" style="enable-background:new 0 0 98 79;" xml:space="preserve">
<style type="text/css">
	.st0{fill:#666F74;}
</style>
<g>
	<path class="st0" d="M86,79H30c-1.66,0-3-1.34-3-3V31c0-1.66,1.34-3,3-3h9.73L65.84,0.92C66.41,0.33,67.19,0,68,0
		c0,0,0.01,0,0.01,0c0.82,0,1.6,0.34,2.16,0.94l9,9.5c0.86,0.91,1.07,2.25,0.52,3.38L72.8,28H95c0.9,0,1.75,0.4,2.32,1.1
		c0.57,0.69,0.8,1.61,0.62,2.49l-9,45C88.66,77.99,87.43,79,86,79z"/>
</g>
<g>
	<path class="st0" d="M12,79H3c-1.66,0-3-1.34-3-3V31c0-1.66,1.34-3,3-3h9c1.66,0,3,1.34,3,3v45C15,77.66,13.66,79,12,79z"/>
</g>
</svg>
