<?xml version="1.0" encoding="utf-8"?>
<!-- Generator: Adobe Illustrator 23.0.1, SVG Export Plug-In . SVG Version: 6.00 Build 0)  -->
<svg version="1.1" id="Layer_18" xmlns="http://www.w3.org/2000/svg" xmlns:xlink="http://www.w3.org/1999/xlink" x="0px" y="0px"
	 viewBox="0 0 99 130.16" style="enable-background:new 0 0 99 130.16;" xml:space="preserve">
<style type="text/css">
	.st0{fill:#666F74;}
</style>
<g>
	<g>
		<path class="st0" d="M84.5,130.16h-70c-7.99,0-14.5-6.5-14.5-14.5v-52c0-7.99,6.51-14.5,14.5-14.5h70c8,0,14.5,6.51,14.5,14.5v52
			C99,123.65,92.5,130.16,84.5,130.16z"/>
	</g>
</g>
<g>
	<path class="st0" d="M75.49,64.32c-3.04,0-5.5-2.46-5.5-5.5V31.49C69.99,20.19,60.8,11,49.5,11s-20.49,9.19-20.49,20.49v27.33
		c0,3.04-2.46,5.5-5.5,5.5s-5.5-2.46-5.5-5.5V31.49C18.01,14.13,32.14,0,49.5,0s31.49,14.13,31.49,31.49v27.33
		C80.99,61.86,78.53,64.32,75.49,64.32z"/>
</g>
</svg>
