<?xml version="1.0" encoding="utf-8"?>
<!-- Generator: Adobe Illustrator 23.0.1, SVG Export Plug-In . SVG Version: 6.00 Build 0)  -->
<svg version="1.1" id="Layer_1" xmlns="http://www.w3.org/2000/svg" xmlns:xlink="http://www.w3.org/1999/xlink" x="0px" y="0px"
	 viewBox="0 0 353.07 183.57" style="enable-background:new 0 0 353.07 183.57;" xml:space="preserve">
<style type="text/css">
	.st0{fill:#E6E6E6;}
	.st1{fill:#CCCCCC;}
	.st2{fill:#B3B3B3;}
	.st3{fill:#3471B8;}
	.st4{fill:#F2F2F2;}
	.st5{opacity:0.35;}
	.st6{opacity:0.42;}
	.st7{fill:#808080;}
	.st8{fill:#677075;}
</style>
<g>
	<path class="st0" d="M290.06,54H40.94C37.66,54,35,51.34,35,48.06V5.94C35,2.66,37.66,0,40.94,0h249.13c3.28,0,5.94,2.66,5.94,5.94
		v42.13C296,51.34,293.34,54,290.06,54z"/>
</g>
<g>
	<path class="st1" d="M62,38.5c-6.34,0-11.5-5.16-11.5-11.5S55.66,15.5,62,15.5S73.5,20.66,73.5,27S68.34,38.5,62,38.5z"/>
</g>
<g>
	<path class="st2" d="M270,20.5H89c-1.38,0-2.5-1.12-2.5-2.5s1.12-2.5,2.5-2.5h181c1.38,0,2.5,1.12,2.5,2.5S271.38,20.5,270,20.5z"
		/>
</g>
<g>
	<path class="st2" d="M143,38.5H89c-1.38,0-2.5-1.12-2.5-2.5s1.12-2.5,2.5-2.5h54c1.38,0,2.5,1.12,2.5,2.5S144.38,38.5,143,38.5z"/>
</g>
<g>
	<path class="st3" d="M255.06,118H5.94C2.66,118,0,115.34,0,112.06V69.94C0,66.66,2.66,64,5.94,64h249.13
		c3.28,0,5.94,2.66,5.94,5.94v42.13C261,115.34,258.34,118,255.06,118z"/>
</g>
<g>
	<path class="st4" d="M27,102.5c-6.34,0-11.5-5.16-11.5-11.5S20.66,79.5,27,79.5S38.5,84.66,38.5,91S33.34,102.5,27,102.5z"/>
</g>
<g>
	<g>
		<path class="st4" d="M60,84.5h-6c-1.38,0-2.5-1.12-2.5-2.5s1.12-2.5,2.5-2.5h6c1.38,0,2.5,1.12,2.5,2.5S61.38,84.5,60,84.5z"/>
	</g>
	<g>
		<path class="st4" d="M189.73,84.5h-12.16c-1.38,0-2.5-1.12-2.5-2.5s1.12-2.5,2.5-2.5h12.16c1.38,0,2.5,1.12,2.5,2.5
			S191.11,84.5,189.73,84.5z M157.3,84.5h-12.16c-1.38,0-2.5-1.12-2.5-2.5s1.12-2.5,2.5-2.5h12.16c1.38,0,2.5,1.12,2.5,2.5
			S158.68,84.5,157.3,84.5z M124.87,84.5H112.7c-1.38,0-2.5-1.12-2.5-2.5s1.12-2.5,2.5-2.5h12.16c1.38,0,2.5,1.12,2.5,2.5
			S126.25,84.5,124.87,84.5z M92.43,84.5H80.27c-1.38,0-2.5-1.12-2.5-2.5s1.12-2.5,2.5-2.5h12.16c1.38,0,2.5,1.12,2.5,2.5
			S93.81,84.5,92.43,84.5z"/>
	</g>
	<g>
		<path class="st4" d="M216,84.5h-6c-1.38,0-2.5-1.12-2.5-2.5s1.12-2.5,2.5-2.5h6c1.38,0,2.5,1.12,2.5,2.5S217.38,84.5,216,84.5z"/>
	</g>
</g>
<g class="st5">
	<path class="st4" d="M134,102.5h-16c-1.38,0-2.5-1.12-2.5-2.5s1.12-2.5,2.5-2.5h16c1.38,0,2.5,1.12,2.5,2.5S135.38,102.5,134,102.5
		z M102,102.5H86c-1.38,0-2.5-1.12-2.5-2.5s1.12-2.5,2.5-2.5h16c1.38,0,2.5,1.12,2.5,2.5S103.38,102.5,102,102.5z M70,102.5H54
		c-1.38,0-2.5-1.12-2.5-2.5s1.12-2.5,2.5-2.5h16c1.38,0,2.5,1.12,2.5,2.5S71.38,102.5,70,102.5z"/>
</g>
<g>
	<path class="st0" d="M290.06,181H40.94c-3.28,0-5.94-2.66-5.94-5.94v-42.13c0-3.28,2.66-5.94,5.94-5.94h249.13
		c3.28,0,5.94,2.66,5.94,5.94v42.13C296,178.34,293.34,181,290.06,181z"/>
</g>
<g>
	<path class="st1" d="M62,165.5c-6.34,0-11.5-5.16-11.5-11.5s5.16-11.5,11.5-11.5s11.5,5.16,11.5,11.5S68.34,165.5,62,165.5z"/>
</g>
<g>
	<path class="st2" d="M224,147.5H89c-1.38,0-2.5-1.12-2.5-2.5s1.12-2.5,2.5-2.5h135c1.38,0,2.5,1.12,2.5,2.5S225.38,147.5,224,147.5
		z"/>
</g>
<g>
	<path class="st2" d="M152,165.5H89c-1.38,0-2.5-1.12-2.5-2.5s1.12-2.5,2.5-2.5h63c1.38,0,2.5,1.12,2.5,2.5S153.38,165.5,152,165.5z
		"/>
</g>
<g class="st6">
	<path class="st7" d="M276.02,166.51c-15.37,0-30.74-5.85-42.44-17.55c-23.4-23.4-23.4-61.48,0-84.88c23.4-23.4,61.48-23.4,84.88,0
		l0,0c23.4,23.4,23.4,61.48,0,84.88C306.76,160.66,291.39,166.51,276.02,166.51z M276.02,50.53c-14.35,0-28.69,5.46-39.61,16.38
		c-21.84,21.84-21.84,57.38,0,79.22c21.84,21.84,57.38,21.84,79.22,0c21.84-21.84,21.84-57.38,0-79.22
		C304.71,55.99,290.36,50.53,276.02,50.53z"/>
</g>
<g>
	<circle class="st4" cx="276.02" cy="106.52" r="36"/>
	<path class="st8" d="M276.02,145.52c-10.42,0-20.21-4.06-27.58-11.42s-11.42-17.16-11.42-27.58c0-10.42,4.06-20.21,11.42-27.58
		c7.37-7.37,17.16-11.42,27.58-11.42c10.42,0,20.21,4.06,27.58,11.42l0,0l0,0c7.37,7.37,11.42,17.16,11.42,27.58
		c0,10.42-4.06,20.21-11.42,27.58C296.23,141.46,286.44,145.52,276.02,145.52z M276.02,73.52c-8.81,0-17.1,3.43-23.33,9.67
		c-6.23,6.23-9.67,14.52-9.67,23.33c0,8.82,3.43,17.1,9.67,23.33c6.23,6.23,14.52,9.67,23.33,9.67c8.82,0,17.1-3.43,23.33-9.67
		s9.67-14.52,9.67-23.33c0-8.81-3.43-17.1-9.67-23.33l0,0C293.12,76.95,284.83,73.52,276.02,73.52z"/>
</g>
<g>
	<path class="st8" d="M301.48,143.97c-3.07,0-6.15-1.17-8.49-3.51c-1.17-1.17-1.17-3.07,0-4.24c1.17-1.17,3.07-1.17,4.24,0
		c2.34,2.34,6.15,2.34,8.49,0c2.34-2.34,2.34-6.15,0-8.49c-1.17-1.17-1.17-3.07,0-4.24c1.17-1.17,3.07-1.17,4.24,0
		c4.68,4.68,4.68,12.29,0,16.97C307.62,142.8,304.55,143.97,301.48,143.97z"/>
</g>
<g>
	<path class="st8" d="M341.07,183.57c-3.07,0-6.15-1.17-8.48-3.51l-18.38-18.38c-4.68-4.68-4.68-12.29,0-16.97
		c4.68-4.68,12.29-4.68,16.97,0l18.38,18.38c4.68,4.68,4.68,12.29,0,16.97C347.22,182.4,344.15,183.57,341.07,183.57z
		 M322.69,147.19c-1.54,0-3.07,0.58-4.24,1.75c-2.34,2.34-2.34,6.15,0,8.49l18.38,18.38c2.34,2.34,6.15,2.34,8.49,0
		c2.34-2.34,2.34-6.15,0-8.49l-18.38-18.38C325.76,147.78,324.22,147.19,322.69,147.19z"/>
</g>
<g>
	<path class="st8" d="M316.32,149.82c-0.77,0-1.54-0.29-2.12-0.88l-8.49-8.49c-1.17-1.17-1.17-3.07,0-4.24
		c1.17-1.17,3.07-1.17,4.24,0l8.49,8.49c1.17,1.17,1.17,3.07,0,4.24C317.86,149.53,317.09,149.82,316.32,149.82z"/>
</g>
<g>
	<path class="st8" d="M339.66,173.16c-0.77,0-1.54-0.29-2.12-0.88c-1.17-1.17-1.17-3.07,0-4.24l6.36-6.36
		c1.17-1.17,3.07-1.17,4.24,0c1.17,1.17,1.17,3.07,0,4.24l-6.36,6.36C341.19,172.87,340.43,173.16,339.66,173.16z"/>
</g>
</svg>
