<?xml version="1.0" encoding="utf-8"?>
<!-- Generator: Adobe Illustrator 23.0.1, SVG Export Plug-In . SVG Version: 6.00 Build 0)  -->
<svg version="1.1" id="Layer_49" xmlns="http://www.w3.org/2000/svg" xmlns:xlink="http://www.w3.org/1999/xlink" x="0px" y="0px"
	 viewBox="0 0 117 117" style="enable-background:new 0 0 117 117;" xml:space="preserve">
<style type="text/css">
	.st0{fill:#666F75;}
</style>
<g>
	<path class="st0" d="M22.5,81C10.09,81,0,70.91,0,58.5C0,46.09,10.09,36,22.5,36S45,46.09,45,58.5C45,70.91,34.91,81,22.5,81z"/>
</g>
<g>
	<path class="st0" d="M94.5,45C82.09,45,72,34.91,72,22.5S82.09,0,94.5,0S117,10.09,117,22.5S106.91,45,94.5,45z"/>
</g>
<g>
	<path class="st0" d="M94.5,117C82.09,117,72,106.91,72,94.5S82.09,72,94.5,72S117,82.09,117,94.5S106.91,117,94.5,117z"/>
</g>
<g>
	<path class="st0" d="M76.61,96.98c-0.8,0-1.61-0.21-2.35-0.67l-39.14-24c-2.12-1.3-2.78-4.07-1.48-6.19s4.07-2.78,6.19-1.48
		l39.14,24c2.12,1.3,2.78,4.07,1.48,6.19C79.6,96.22,78.12,96.98,76.61,96.98z"/>
</g>
<g>
	<path class="st0" d="M38.7,55.15c-1.54,0-3.04-0.79-3.88-2.21c-1.27-2.14-0.56-4.9,1.58-6.17L75,23.92
		c2.13-1.27,4.9-0.56,6.17,1.58c1.27,2.14,0.56,4.9-1.58,6.17L40.99,54.52C40.27,54.95,39.48,55.15,38.7,55.15z"/>
</g>
</svg>
