<?xml version="1.0" encoding="utf-8"?>
<!-- Generator: Adobe Illustrator 23.0.1, SVG Export Plug-In . SVG Version: 6.00 Build 0)  -->
<svg version="1.1" id="Info_copy" xmlns="http://www.w3.org/2000/svg" xmlns:xlink="http://www.w3.org/1999/xlink" x="0px" y="0px"
	 viewBox="0 0 135 135" style="enable-background:new 0 0 135 135;" xml:space="preserve">
<style type="text/css">
	.st0{fill:#666F74;}
</style>
<g>
	<path class="st0" d="M67.5,135C30.28,135,0,104.72,0,67.5C0,30.28,30.28,0,67.5,0S135,30.28,135,67.5
		C135,104.72,104.72,135,67.5,135z M67.5,9C35.24,9,9,35.24,9,67.5S35.24,126,67.5,126S126,99.76,126,67.5S99.76,9,67.5,9z"/>
</g>
<g>
	<path class="st0" d="M96,63c-4.96,0-9-4.04-9-9s4.04-9,9-9s9,4.04,9,9S100.96,63,96,63z"/>
</g>
<g>
	<path class="st0" d="M39,63c-4.96,0-9-4.04-9-9s4.04-9,9-9s9,4.04,9,9S43.96,63,39,63z"/>
</g>
<g>
	<path class="st0" d="M68.52,106c-4.67,0-8.94-0.9-12.57-2.1c-11.01-3.67-18.33-10.91-18.63-11.21c-1.76-1.76-1.76-4.61,0-6.36
		c1.76-1.75,4.6-1.76,6.36-0.01l0,0c0.98,0.97,24.22,23.43,47.65,0.01c1.76-1.76,4.61-1.76,6.36,0c1.76,1.76,1.76,4.61,0,6.36
		C87.52,102.84,77.3,106,68.52,106z"/>
</g>
</svg>
