<?xml version="1.0" encoding="utf-8"?>
<!-- Generator: Adobe Illustrator 23.0.1, SVG Export Plug-In . SVG Version: 6.00 Build 0)  -->
<svg version="1.1" id="Layer_1" xmlns="http://www.w3.org/2000/svg" xmlns:xlink="http://www.w3.org/1999/xlink" x="0px" y="0px"
	 viewBox="0 0 68 86" style="enable-background:new 0 0 68 86;" xml:space="preserve">
<style type="text/css">
	.st0{fill:#666F74;}
	.st1{opacity:0.25;}
	.st2{opacity:0.5;}
</style>
<g>
	<path class="st0" d="M65,86H3c-1.66,0-3-1.34-3-3V21c0-1.66,1.34-3,3-3h62c1.66,0,3,1.34,3,3v62C68,84.66,66.66,86,65,86z M6,80h56
		V24H6V80z"/>
</g>
<g class="st1">
	<path class="st0" d="M47,15c-1.66,0-3-1.34-3-3V6H24v6c0,1.66-1.34,3-3,3s-3-1.34-3-3V3c0-1.66,1.34-3,3-3h26c1.66,0,3,1.34,3,3v9
		C50,13.66,48.66,15,47,15z"/>
</g>
<g>
	<path class="st0" d="M34,69.33c-0.77,0-1.54-0.29-2.12-0.88L21.21,57.79c-1.17-1.17-1.17-3.07,0-4.24c1.17-1.17,3.07-1.17,4.24,0
		L34,62.09l8.54-8.54c1.17-1.17,3.07-1.17,4.24,0c1.17,1.17,1.17,3.07,0,4.24L36.12,68.45C35.54,69.04,34.77,69.33,34,69.33z"/>
</g>
<g>
	<path class="st0" d="M34,66c-1.66,0-3-1.34-3-3V37c0-1.66,1.34-3,3-3c1.66,0,3,1.34,3,3v26C37,64.66,35.66,66,34,66z"/>
</g>
<g class="st2">
	<path class="st0" d="M56,24c-1.66,0-3-1.34-3-3v-6H15v6c0,1.66-1.34,3-3,3s-3-1.34-3-3v-9c0-1.66,1.34-3,3-3h44c1.66,0,3,1.34,3,3
		v9C59,22.66,57.66,24,56,24z"/>
</g>
</svg>
