<?xml version="1.0" encoding="utf-8"?>
<!-- Generator: Adobe Illustrator 23.0.1, SVG Export Plug-In . SVG Version: 6.00 Build 0)  -->
<svg version="1.1" id="Layer_14" xmlns="http://www.w3.org/2000/svg" xmlns:xlink="http://www.w3.org/1999/xlink" x="0px" y="0px"
	 viewBox="0 0 81 81" style="enable-background:new 0 0 81 81;" xml:space="preserve">
<style type="text/css">
	.st0{fill:#666F74;}
</style>
<g>
	<path class="st0" d="M76.5,81c-1.15,0-2.3-0.44-3.18-1.32l-72-72c-1.76-1.76-1.76-4.61,0-6.36c1.76-1.76,4.61-1.76,6.36,0l72,72
		c1.76,1.76,1.76,4.61,0,6.36C78.8,80.56,77.65,81,76.5,81z"/>
</g>
<g>
	<path class="st0" d="M4.5,81c-1.15,0-2.3-0.44-3.18-1.32c-1.76-1.76-1.76-4.61,0-6.36l72-72c1.76-1.76,4.61-1.76,6.36,0
		c1.76,1.76,1.76,4.61,0,6.36l-72,72C6.8,80.56,5.65,81,4.5,81z"/>
</g>
</svg>
