<?xml version="1.0" encoding="utf-8"?>
<!-- Generator: Adobe Illustrator 23.0.1, SVG Export Plug-In . SVG Version: 6.00 Build 0)  -->
<svg version="1.1" id="Pencil" xmlns="http://www.w3.org/2000/svg" xmlns:xlink="http://www.w3.org/1999/xlink" x="0px" y="0px"
	 viewBox="0 0 113.66 113.66" style="enable-background:new 0 0 113.66 113.66;" xml:space="preserve">
<style type="text/css">
	.st0{fill:#666F74;}
</style>
<g>
	<path class="st0" d="M4.5,113.66c-1.18,0-2.33-0.47-3.18-1.32c-1.06-1.06-1.52-2.59-1.23-4.06l6.36-31.82
		c0.33-1.63,1.52-2.94,3.11-3.42c1.59-0.48,3.31-0.05,4.49,1.13L39.5,99.61c1.17,1.17,1.6,2.9,1.13,4.49
		c-0.48,1.59-1.8,2.78-3.42,3.11l-31.82,6.36C5.09,113.63,4.79,113.66,4.5,113.66z M13.63,86.47l-3.39,16.96l16.96-3.39L13.63,86.47
		z"/>
</g>
<g>
	<path class="st0" d="M36.32,107.29c-1.15,0-2.3-0.44-3.18-1.32c-1.76-1.76-1.76-4.61,0-6.36l54.09-54.09L68.14,26.43L14.05,80.52
		c-1.76,1.76-4.61,1.76-6.36,0c-1.76-1.76-1.76-4.61,0-6.36l57.28-57.28c0.84-0.84,1.99-1.32,3.18-1.32l0,0
		c1.19,0,2.34,0.47,3.18,1.32l25.46,25.46c1.76,1.76,1.76,4.61,0,6.36L39.5,105.97C38.62,106.85,37.47,107.29,36.32,107.29z"/>
</g>
<g>
	<path class="st0" d="M93.6,50.02c-1.15,0-2.3-0.44-3.18-1.32c-1.76-1.76-1.76-4.61,0-6.36l12.73-12.73c1.39-1.47,2.56-3.8,0-6.36
		L90.41,10.52c-1.47-1.39-3.8-2.56-6.36,0L71.32,23.24c-1.76,1.76-4.61,1.76-6.36,0c-1.76-1.76-1.76-4.61,0-6.36L77.69,4.15
		c3.83-3.83,8.58-5.07,13.36-3.47c3.23,1.08,5.35,3.08,5.74,3.47l12.73,12.73c3.83,3.83,5.07,8.58,3.47,13.35
		c-1.08,3.23-3.08,5.35-3.47,5.74L96.78,48.7C95.9,49.58,94.75,50.02,93.6,50.02z"/>
</g>
</svg>
