<?xml version="1.0" encoding="utf-8"?>
<!-- Generator: Adobe Illustrator 23.0.1, SVG Export Plug-In . SVG Version: 6.00 Build 0)  -->
<svg version="1.1" id="Layer_11" xmlns="http://www.w3.org/2000/svg" xmlns:xlink="http://www.w3.org/1999/xlink" x="0px" y="0px"
	 viewBox="0 0 98 98" style="enable-background:new 0 0 98 98;" xml:space="preserve">
<style type="text/css">
	.st0{fill:#666F74;}
</style>
<g>
	<path class="st0" d="M94,98c-1.04,0-2.06-0.41-2.83-1.17L74.34,80H4c-2.21,0-4-1.79-4-4V4c0-2.21,1.79-4,4-4h90c2.21,0,4,1.79,4,4
		v90c0,1.62-0.97,3.08-2.47,3.69C95.04,97.9,94.52,98,94,98z M8,72h68c1.06,0,2.08,0.42,2.83,1.17L90,84.34V8H8V72z"/>
</g>
</svg>
