<?xml version="1.0" encoding="utf-8"?>
<!-- Generator: Adobe Illustrator 23.0.1, SVG Export Plug-In . SVG Version: 6.00 Build 0)  -->
<svg version="1.1" id="Layer_123" xmlns="http://www.w3.org/2000/svg" xmlns:xlink="http://www.w3.org/1999/xlink" x="0px" y="0px"
	 viewBox="0 0 122.9 122.79" style="enable-background:new 0 0 122.9 122.79;" xml:space="preserve">
<style type="text/css">
	.st0{fill:#666F74;}
</style>
<g>
	<path class="st0" d="M67.61,36.38c-1.95-1.95-1.95-5.12,0-7.07l25.1-25.1c5.75-5.75,14.91-5.59,20.86,0.35l4.95,4.95
		c5.85,5.85,5.85,15.36,0,21.21L93.77,55.48c-0.98,0.98-2.26,1.46-3.54,1.46s-2.56-0.49-3.54-1.46"/>
</g>
<g>
	<path class="st0" d="M96.6,62.81c-1.15,0-2.31-0.44-3.18-1.32L61.59,29.67c-1.76-1.76-1.76-4.61,0-6.36c1.76-1.76,4.61-1.76,6.36,0
		l31.82,31.82c1.76,1.76,1.76,4.61,0,6.36C98.9,62.37,97.75,62.81,96.6,62.81z"/>
</g>
<g>
	<path class="st0" d="M34.82,113.72H18.36l-9-9V88.26l58.59-58.59c1.76-1.76,4.61-1.76,6.36,0c1.76,1.76,1.76,4.61,0,6.36
		L18.36,91.99v9l3.73,3.73h9l55.96-55.96c1.76-1.76,4.61-1.76,6.36,0c1.76,1.76,1.76,4.61,0,6.36L34.82,113.72z"/>
</g>
<g>
	<path class="st0" d="M6.5,122.79c-1.66,0-3.33-0.64-4.6-1.9c-2.54-2.54-2.54-6.65,0-9.19l8.51-8.51c2.54-2.54,6.65-2.54,9.19,0
		c2.54,2.54,2.54,6.65,0,9.19l-8.51,8.51C9.83,122.15,8.16,122.79,6.5,122.79z"/>
</g>
</svg>
