<?xml version="1.0" encoding="utf-8"?>
<!-- Generator: Adobe Illustrator 23.0.1, SVG Export Plug-In . SVG Version: 6.00 Build 0)  -->
<svg version="1.1" id="Performatted" xmlns="http://www.w3.org/2000/svg" xmlns:xlink="http://www.w3.org/1999/xlink" x="0px"
	 y="0px" viewBox="0 0 153 117" style="enable-background:new 0 0 153 117;" xml:space="preserve">
<style type="text/css">
	.st0{fill:#666F74;}
</style>
<g>
	<path class="st0" d="M112.5,99c-1.15,0-2.3-0.44-3.18-1.32c-1.76-1.76-1.76-4.61,0-6.36l32.82-32.82l-32.82-32.82
		c-1.76-1.76-1.76-4.61,0-6.36c1.76-1.76,4.61-1.76,6.36,0l36,36c1.76,1.76,1.76,4.61,0,6.36l-36,36C114.8,98.56,113.65,99,112.5,99
		z"/>
</g>
<g>
	<path class="st0" d="M40.5,99c-1.15,0-2.3-0.44-3.18-1.32l-36-36c-1.76-1.76-1.76-4.61,0-6.36l36-36c1.76-1.76,4.61-1.76,6.36,0
		c1.76,1.76,1.76,4.61,0,6.36L10.86,58.5l32.82,32.82c1.76,1.76,1.76,4.61,0,6.36C42.8,98.56,41.65,99,40.5,99z"/>
</g>
<g>
	<path class="st0" d="M58.5,117c-0.47,0-0.95-0.07-1.42-0.23c-2.36-0.79-3.63-3.33-2.85-5.69l36-108c0.79-2.36,3.34-3.63,5.69-2.85
		c2.36,0.79,3.63,3.33,2.85,5.69l-36,108C62.14,115.81,60.38,117,58.5,117z"/>
</g>
</svg>
