<?xml version="1.0" encoding="utf-8"?>
<!-- Generator: Adobe Illustrator 23.0.1, SVG Export Plug-In . SVG Version: 6.00 Build 0)  -->
<svg version="1.1" id="Layer_56" xmlns="http://www.w3.org/2000/svg" xmlns:xlink="http://www.w3.org/1999/xlink" x="0px" y="0px"
	 viewBox="0 0 90 117" style="enable-background:new 0 0 90 117;" xml:space="preserve">
<style type="text/css">
	.st0{fill:#666F74;}
</style>
<g>
	<path class="st0" d="M58.5,117h-45c-2.48,0-4.5-2.01-4.5-4.5V4.5C9,2.02,11.02,0,13.5,0h45C75.87,0,90,14.13,90,31.5
		c0,11.44-6.14,21.48-15.29,27C83.86,64.02,90,74.06,90,85.5C90,102.87,75.87,117,58.5,117z M18,108h40.5
		C70.91,108,81,97.91,81,85.5S70.91,63,58.5,63h-18c-2.49,0-4.5-2.01-4.5-4.5s2.01-4.5,4.5-4.5h18C70.91,54,81,43.91,81,31.5
		S70.91,9,58.5,9H18V108z"/>
</g>
<g>
	<path class="st0" d="M13.5,9h-9C2.02,9,0,6.99,0,4.5S2.02,0,4.5,0h9C15.98,0,18,2.02,18,4.5S15.98,9,13.5,9z"/>
</g>
<g>
	<path class="st0" d="M13.5,117h-9c-2.48,0-4.5-2.01-4.5-4.5s2.02-4.5,4.5-4.5h9c2.48,0,4.5,2.01,4.5,4.5S15.98,117,13.5,117z"/>
</g>
</svg>
