<?xml version="1.0" encoding="utf-8"?>
<!-- Generator: Adobe Illustrator 23.0.1, SVG Export Plug-In . SVG Version: 6.00 Build 0)  -->
<svg version="1.1" id="User" xmlns="http://www.w3.org/2000/svg" xmlns:xlink="http://www.w3.org/1999/xlink" x="0px" y="0px"
	 viewBox="0 0 102.04 117.01" style="enable-background:new 0 0 102.04 117.01;" xml:space="preserve">
<style type="text/css">
	.st0{fill:#666F75;}
</style>
<g>
	<path class="st0" d="M50.69,58.22c-14.61,0-26.38-17.42-26.38-31.85C24.31,11.83,36.14,0,50.69,0c14.54,0,26.37,11.83,26.37,26.38
		C77.06,40.8,65.3,58.22,50.69,58.22z"/>
</g>
<g>
	<path class="st0" d="M51.02,117.01c-0.22,0-0.44-0.02-0.66-0.05C28.06,113.69,4,105.16,2.99,104.8c-2.02-0.72-3.25-2.77-2.94-4.89
		c1.19-8.14,3.67-22.39,6.85-26.28c0.95-1.16,2.18-2.28,3.66-3.34c8.98-6.41,21.6-10.32,22.14-10.48c1.86-0.57,3.88,0.12,5,1.72
		c1.75,2.46,7.67,8.85,13.95,8.85c0.01,0,0.02,0,0.03,0c4.29-0.01,8.55-2.99,12.67-8.85c1.12-1.59,3.14-2.29,5-1.72
		c0.53,0.16,13.16,4.08,22.13,10.48c1.5,1.07,2.72,2.19,3.66,3.34c3.18,3.91,5.66,18.15,6.86,26.29c0.31,2.12-0.92,4.17-2.94,4.89
		c-1.01,0.36-25.08,8.89-47.38,12.17C51.46,117,51.24,117.01,51.02,117.01z"/>
</g>
</svg>
