<?xml version="1.0" encoding="utf-8"?>
<!-- Generator: Adobe Illustrator 23.0.1, SVG Export Plug-In . SVG Version: 6.00 Build 0)  -->
<svg version="1.1" id="Layer_62" xmlns="http://www.w3.org/2000/svg" xmlns:xlink="http://www.w3.org/1999/xlink" x="0px" y="0px"
	 viewBox="0 0 99 117" style="enable-background:new 0 0 99 117;" xml:space="preserve">
<style type="text/css">
	.st0{fill:#666F74;}
</style>
<g>
	<path class="st0" d="M22.5,9h-18C2.02,9,0,6.99,0,4.5S2.02,0,4.5,0h18C24.99,0,27,2.02,27,4.5S24.99,9,22.5,9z"/>
</g>
<g>
	<path class="st0" d="M13.5,117c-2.48,0-4.5-2.01-4.5-4.5V4.5C9,2.02,11.02,0,13.5,0S18,2.02,18,4.5v108
		C18,114.99,15.98,117,13.5,117z"/>
</g>
<g>
	<path class="st0" d="M22.5,117h-18c-2.48,0-4.5-2.01-4.5-4.5s2.02-4.5,4.5-4.5h18c2.49,0,4.5,2.01,4.5,4.5S24.99,117,22.5,117z"/>
</g>
<g>
	<path class="st0" d="M94.5,9h-18C74.01,9,72,6.99,72,4.5S74.01,0,76.5,0h18C96.99,0,99,2.02,99,4.5S96.99,9,94.5,9z"/>
</g>
<g>
	<path class="st0" d="M85.5,117c-2.49,0-4.5-2.01-4.5-4.5V4.5C81,2.02,83.01,0,85.5,0S90,2.02,90,4.5v108
		C90,114.99,87.99,117,85.5,117z"/>
</g>
<g>
	<path class="st0" d="M94.5,117h-18c-2.49,0-4.5-2.01-4.5-4.5s2.01-4.5,4.5-4.5h18c2.49,0,4.5,2.01,4.5,4.5S96.99,117,94.5,117z"/>
</g>
<g>
	<path class="st0" d="M85.5,63h-72C11.02,63,9,60.99,9,58.5s2.02-4.5,4.5-4.5h72c2.49,0,4.5,2.01,4.5,4.5S87.99,63,85.5,63z"/>
</g>
</svg>
