<?xml version="1.0" encoding="utf-8"?>
<!-- Generator: Adobe Illustrator 23.0.1, SVG Export Plug-In . SVG Version: 6.00 Build 0)  -->
<svg version="1.1" id="Layer_9" xmlns="http://www.w3.org/2000/svg" xmlns:xlink="http://www.w3.org/1999/xlink" x="0px" y="0px"
	 viewBox="0 0 72 71.67" style="enable-background:new 0 0 72 71.67;" xml:space="preserve">
<style type="text/css">
	.st0{fill:#666F75;}
</style>
<g>
	<path class="st0" d="M9.5,40.67h-5c-2.49,0-4.5-2.01-4.5-4.5s2.01-4.5,4.5-4.5h5c2.49,0,4.5,2.01,4.5,4.5S11.99,40.67,9.5,40.67z"
		/>
</g>
<g>
	<path class="st0" d="M67.5,40.67H46.17c-2.49,0-4.5-2.01-4.5-4.5s2.01-4.5,4.5-4.5H67.5c2.49,0,4.5,2.01,4.5,4.5
		S69.99,40.67,67.5,40.67z"/>
</g>
<g>
	<path class="st0" d="M28.5,45c-4.87,0-8.83-3.96-8.83-8.83s3.96-8.83,8.83-8.83c4.87,0,8.83,3.96,8.83,8.83S33.37,45,28.5,45z
		 M28.5,36c-0.09,0-0.17,0.07-0.17,0.17c0,0.18,0.33,0.18,0.33,0C28.67,36.07,28.59,36,28.5,36z"/>
</g>
<g>
	<path class="st0" d="M27.5,13.33h-23c-2.49,0-4.5-2.01-4.5-4.5s2.01-4.5,4.5-4.5h23c2.49,0,4.5,2.01,4.5,4.5
		S29.99,13.33,27.5,13.33z"/>
</g>
<g>
	<path class="st0" d="M67.5,13.33h-3.33c-2.49,0-4.5-2.01-4.5-4.5s2.01-4.5,4.5-4.5h3.33c2.49,0,4.5,2.01,4.5,4.5
		S69.99,13.33,67.5,13.33z"/>
</g>
<g>
	<path class="st0" d="M46.5,17.67c-4.87,0-8.83-3.96-8.83-8.83S41.63,0,46.5,0s8.83,3.96,8.83,8.83S51.37,17.67,46.5,17.67z
		 M46.5,8.67c-0.09,0-0.17,0.07-0.17,0.17c0,0.18,0.33,0.18,0.33,0C46.67,8.74,46.59,8.67,46.5,8.67z"/>
</g>
<g>
	<path class="st0" d="M27.5,67.33h-23c-2.49,0-4.5-2.01-4.5-4.5s2.01-4.5,4.5-4.5h23c2.49,0,4.5,2.01,4.5,4.5
		S29.99,67.33,27.5,67.33z"/>
</g>
<g>
	<path class="st0" d="M67.5,67.33h-3.33c-2.49,0-4.5-2.01-4.5-4.5s2.01-4.5,4.5-4.5h3.33c2.49,0,4.5,2.01,4.5,4.5
		S69.99,67.33,67.5,67.33z"/>
</g>
<g>
	<path class="st0" d="M46.5,71.67c-4.87,0-8.83-3.96-8.83-8.83S41.63,54,46.5,54s8.83,3.96,8.83,8.83S51.37,71.67,46.5,71.67z
		 M46.5,62.67c-0.09,0-0.17,0.08-0.17,0.17c0,0.18,0.33,0.18,0.33,0C46.67,62.74,46.59,62.67,46.5,62.67z"/>
</g>
</svg>
