<?xml version="1.0" encoding="utf-8"?>
<!-- Generator: Adobe Illustrator 23.0.1, SVG Export Plug-In . SVG Version: 6.00 Build 0)  -->
<svg version="1.1" id="Notification" xmlns="http://www.w3.org/2000/svg" xmlns:xlink="http://www.w3.org/1999/xlink" x="0px"
	 y="0px" viewBox="0 0 117.97 144.98" style="enable-background:new 0 0 117.97 144.98;" xml:space="preserve">
<style type="text/css">
	.st0{fill:#666F75;}
</style>
<g>
	<path class="st0" d="M58.91,122.04c-29.78,0-50.46-7.89-51.75-8.4c-0.64-0.25-1.23-0.63-1.71-1.12c-9.2-9.2-5.04-20.03,0-25.07
		c5.68-5.68,10.73-29.47,12.58-43.14c0.04-0.31,0.11-0.61,0.21-0.91C25.37,22,37.99,15.65,44.98,13.77V8.98
		c0-1.33,0.53-2.6,1.46-3.54c5.04-5.04,15.88-9.2,25.07,0c0.94,0.94,1.46,2.21,1.46,3.54v4.79c7,1.88,19.61,8.23,26.74,29.63
		c0.1,0.3,0.17,0.6,0.21,0.91c1.85,13.66,6.9,37.45,12.58,43.14c5.04,5.04,9.2,15.87,0,25.07c-0.55,0.55-1.22,0.96-1.95,1.21
		C91.88,119.96,74.19,122.04,58.91,122.04z"/>
</g>
<g>
	<path class="st0" d="M59.48,144.98c-10.37,0-18.5-6.15-18.5-14c0-2.76,2.24-5,5-5h27c2.76,0,5,2.24,5,5
		C77.98,138.83,69.86,144.98,59.48,144.98z"/>
</g>
</svg>
