<?xml version="1.0" encoding="utf-8"?>
<!-- Generator: Adobe Illustrator 23.0.1, SVG Export Plug-In . SVG Version: 6.00 Build 0)  -->
<svg version="1.1" id="Layer_120" xmlns="http://www.w3.org/2000/svg" xmlns:xlink="http://www.w3.org/1999/xlink" x="0px" y="0px"
	 viewBox="0 0 112.5 108" style="enable-background:new 0 0 112.5 108;" xml:space="preserve">
<style type="text/css">
	.st0{fill:#666F74;}
</style>
<g>
	<circle class="st0" cx="9" cy="9" r="9"/>
</g>
<g>
	<path class="st0" d="M108,13.5H36c-2.49,0-4.5-2.02-4.5-4.5s2.01-4.5,4.5-4.5h72c2.49,0,4.5,2.02,4.5,4.5S110.49,13.5,108,13.5z"/>
</g>
<g>
	<circle class="st0" cx="9" cy="54" r="9"/>
</g>
<g>
	<path class="st0" d="M90,58.5H36c-2.49,0-4.5-2.01-4.5-4.5s2.01-4.5,4.5-4.5h54c2.49,0,4.5,2.01,4.5,4.5S92.49,58.5,90,58.5z"/>
</g>
<g>
	<circle class="st0" cx="9" cy="99" r="9"/>
</g>
<g>
	<path class="st0" d="M108,103.5H36c-2.49,0-4.5-2.01-4.5-4.5s2.01-4.5,4.5-4.5h72c2.49,0,4.5,2.01,4.5,4.5S110.49,103.5,108,103.5z
		"/>
</g>
</svg>
