<?xml version="1.0" encoding="utf-8"?>
<!-- Generator: Adobe Illustrator 23.0.1, SVG Export Plug-In . SVG Version: 6.00 Build 0)  -->
<svg version="1.1" xmlns="http://www.w3.org/2000/svg" xmlns:xlink="http://www.w3.org/1999/xlink" x="0px" y="0px"
	 viewBox="0 0 108 108" style="enable-background:new 0 0 108 108;" xml:space="preserve">
<style type="text/css">
	.st0{fill:#666F75;}
</style>
<g id="Favorite_x5F_Topic">
</g>
<g id="Layer_2">
	<path class="st0" d="M54,0C24.18,0,0,24.18,0,54s24.18,54,54,54s54-24.18,54-54S83.82,0,54,0z M85.6,40.6l-36,36
		c-1.27,1.27-2.93,1.9-4.6,1.9c-1.66,0-3.33-0.63-4.6-1.9l-18-18c-2.54-2.54-2.54-6.65,0-9.19c2.54-2.54,6.65-2.54,9.19,0L45,62.81
		l31.4-31.4c2.54-2.54,6.65-2.54,9.19,0C88.13,33.94,88.13,38.06,85.6,40.6z"/>
</g>
</svg>
