<?xml version="1.0" encoding="utf-8"?>
<!-- Generator: Adobe Illustrator 23.0.1, SVG Export Plug-In . SVG Version: 6.00 Build 0)  -->
<svg version="1.1" id="Layer_1" xmlns="http://www.w3.org/2000/svg" xmlns:xlink="http://www.w3.org/1999/xlink" x="0px" y="0px"
	 viewBox="0 0 159 186" style="enable-background:new 0 0 159 186;" xml:space="preserve">
<style type="text/css">
	.st0{opacity:0.4;}
	.st1{fill:#980B3E;}
	.st2{fill:#677075;}
</style>
<g class="st0">
	<polygon class="st1" points="84,183 84,39 156,3 156,147 	"/>
</g>
<g>
	<path class="st2" d="M156,150c-1.66,0-3-1.34-3-3V6H33v33c0,1.66-1.34,3-3,3s-3-1.34-3-3V3c0-1.66,1.34-3,3-3h126
		c1.66,0,3,1.34,3,3v144C159,148.66,157.66,150,156,150z"/>
</g>
<g>
	<path class="st2" d="M84,186c-0.55,0-1.1-0.15-1.58-0.45C81.54,185,81,184.04,81,183V39c0-1.14,0.64-2.17,1.66-2.68l72-36
		c1.48-0.74,3.28-0.14,4.02,1.34c0.74,1.48,0.14,3.28-1.34,4.03L87,40.85v137.29l67.66-33.83c1.48-0.74,3.28-0.14,4.02,1.34
		c0.74,1.48,0.14,3.28-1.34,4.03l-72,36C84.92,185.89,84.46,186,84,186z"/>
</g>
<g>
	<path class="st2" d="M84,150H30c-1.66,0-3-1.34-3-3v-36c0-1.66,1.34-3,3-3s3,1.34,3,3v33h51c1.66,0,3,1.34,3,3S85.66,150,84,150z"
		/>
</g>
<g>
	<path class="st2" d="M102,123c-1.66,0-3-1.34-3-3v-18c0-1.66,1.34-3,3-3s3,1.34,3,3v18C105,121.66,103.66,123,102,123z"/>
</g>
<g>
	<path class="st2" d="M57,78H3c-1.66,0-3-1.34-3-3s1.34-3,3-3h54c1.66,0,3,1.34,3,3S58.66,78,57,78z"/>
</g>
<g>
	<path class="st2" d="M21,96c-0.77,0-1.54-0.29-2.12-0.88l-18-18c-1.17-1.17-1.17-3.07,0-4.24l18-18c1.17-1.17,3.07-1.17,4.24,0
		c1.17,1.17,1.17,3.07,0,4.24L7.24,75l15.88,15.88c1.17,1.17,1.17,3.07,0,4.24C22.54,95.71,21.77,96,21,96z"/>
</g>
</svg>
