<?xml version="1.0" encoding="utf-8"?>
<!-- Generator: Adobe Illustrator 23.0.1, SVG Export Plug-In . SVG Version: 6.00 Build 0)  -->
<svg version="1.1" id="Layer_16" xmlns="http://www.w3.org/2000/svg" xmlns:xlink="http://www.w3.org/1999/xlink" x="0px" y="0px"
	 viewBox="0 0 117 117" style="enable-background:new 0 0 117 117;" xml:space="preserve">
<style type="text/css">
	.st0{fill:#666F74;}
</style>
<g>
	<path class="st0" d="M54,108C24.22,108,0,83.78,0,54C0,24.22,24.22,0,54,0c29.78,0,54,24.22,54,54C108,83.78,83.78,108,54,108z
		 M54,9C29.19,9,9,29.19,9,54s20.19,45,45,45s45-20.19,45-45S78.81,9,54,9z"/>
</g>
<g>
	<path class="st0" d="M112.5,117c-1.15,0-2.3-0.44-3.18-1.32l-23.5-23.5c-1.76-1.76-1.76-4.61,0-6.36c1.76-1.76,4.61-1.76,6.36,0
		l23.5,23.5c1.76,1.76,1.76,4.61,0,6.36C114.8,116.56,113.65,117,112.5,117z"/>
</g>
<g>
	<path class="st0" d="M72.5,45h-37c-2.49,0-4.5-2.01-4.5-4.5s2.01-4.5,4.5-4.5h37c2.49,0,4.5,2.01,4.5,4.5S74.99,45,72.5,45z"/>
</g>
<g>
	<path class="st0" d="M58.5,72h-23c-2.49,0-4.5-2.01-4.5-4.5s2.01-4.5,4.5-4.5h23c2.49,0,4.5,2.01,4.5,4.5S60.99,72,58.5,72z"/>
</g>
</svg>
