<?xml version="1.0" encoding="utf-8"?>
<!-- Generator: Adobe Illustrator 23.0.1, SVG Export Plug-In . SVG Version: 6.00 Build 0)  -->
<svg version="1.1" id="Layer_57" xmlns="http://www.w3.org/2000/svg" xmlns:xlink="http://www.w3.org/1999/xlink" x="0px" y="0px"
	 viewBox="0 0 81 117" style="enable-background:new 0 0 81 117;" xml:space="preserve">
<style type="text/css">
	.st0{fill:#666F74;}
</style>
<g>
	<path class="st0" d="M76.5,9h-45C29.01,9,27,6.99,27,4.5S29.01,0,31.5,0h45C78.99,0,81,2.02,81,4.5S78.99,9,76.5,9z"/>
</g>
<g>
	<path class="st0" d="M49.5,117h-45c-2.48,0-4.5-2.01-4.5-4.5s2.02-4.5,4.5-4.5h45c2.49,0,4.5,2.01,4.5,4.5S51.99,117,49.5,117z"/>
</g>
<g>
	<path class="st0" d="M22.5,117c-0.47,0-0.95-0.07-1.42-0.23c-2.36-0.79-3.63-3.33-2.85-5.69l36-108c0.79-2.36,3.34-3.63,5.69-2.85
		c2.36,0.79,3.63,3.33,2.85,5.69l-36,108C26.14,115.81,24.39,117,22.5,117z"/>
</g>
</svg>
