<?xml version="1.0" encoding="utf-8"?>
<!-- Generator: Adobe Illustrator 23.0.1, SVG Export Plug-In . SVG Version: 6.00 Build 0)  -->
<svg version="1.1" id="Layer_119" xmlns="http://www.w3.org/2000/svg" xmlns:xlink="http://www.w3.org/1999/xlink" x="0px" y="0px"
	 viewBox="0 0 111.53 117" style="enable-background:new 0 0 111.53 117;" xml:space="preserve">
<style type="text/css">
	.st0{fill:#666F75;}
</style>
<g>
	<path class="st0" d="M64.77,117h-18c-1.75,0-3.33-1.01-4.07-2.59L34.9,97.79H13.5c-1.61,0-3.09-0.86-3.9-2.25l-9-15.59
		c-0.85-1.47-0.8-3.29,0.13-4.71L11.64,58.5L0.73,41.75c-0.93-1.42-0.97-3.24-0.13-4.71l9-15.59c0.8-1.39,2.29-2.25,3.9-2.25h19.66
		l9.7-16.94c0.8-1.4,2.29-2.26,3.9-2.26h18c1.75,0,3.33,1.01,4.08,2.59l7.79,16.62l21.41,0c1.61,0,3.09,0.86,3.9,2.25l9,15.59
		c0.85,1.48,0.8,3.32-0.15,4.74L99.67,58.5l11.11,16.71c0.95,1.42,1,3.26,0.15,4.74l-9,15.59c-0.8,1.39-2.29,2.25-3.9,2.25H76.63
		l-7.79,16.61C68.1,115.99,66.51,117,64.77,117z M55.77,41.25c-9.51,0-17.25,7.74-17.25,17.25c0,9.51,7.74,17.25,17.25,17.25
		c9.51,0,17.25-7.74,17.25-17.25C73.01,48.99,65.28,41.25,55.77,41.25z"/>
</g>
</svg>
