<?xml version="1.0" encoding="utf-8"?>
<!-- Generator: Adobe Illustrator 23.0.1, SVG Export Plug-In . SVG Version: 6.00 Build 0)  -->
<svg version="1.1" id="Reply_x5F_Topic" xmlns="http://www.w3.org/2000/svg" xmlns:xlink="http://www.w3.org/1999/xlink" x="0px"
	 y="0px" viewBox="0 0 117 101.57" style="enable-background:new 0 0 117 101.57;" xml:space="preserve">
<style type="text/css">
	.st0{fill:#666F75;}
</style>
<g>
	<path class="st0" d="M112.5,101.57c-1.91,0-3.65-1.22-4.27-3.08c-5.81-17.44-16.92-27.46-33.01-29.75
		c-8.34-1.19-15.9,0.02-19.94,0.93v27.4c0,1.82-1.1,3.46-2.78,4.16c-1.68,0.7-3.62,0.31-4.9-0.98L1.32,53.97
		C0.47,53.13,0,51.98,0,50.79s0.47-2.34,1.32-3.18L47.6,1.32c1.29-1.29,3.22-1.67,4.9-0.98c1.68,0.7,2.78,2.34,2.78,4.16v26.61
		c6,0.55,17.14,2.32,28.37,7.94C98.87,46.65,117,62.89,117,97.07c0,2.21-1.6,4.09-3.78,4.44
		C112.98,101.55,112.74,101.57,112.5,101.57z"/>
</g>
</svg>
