<?xml version="1.0" encoding="utf-8"?>
<!-- Generator: Adobe Illustrator 23.0.1, SVG Export Plug-In . SVG Version: 6.00 Build 0)  -->
<svg version="1.1" id="Share_x5F_Topic" xmlns="http://www.w3.org/2000/svg" xmlns:xlink="http://www.w3.org/1999/xlink" x="0px"
	 y="0px" viewBox="0 0 102.04 102.03" style="enable-background:new 0 0 102.04 102.03;" xml:space="preserve">
<style type="text/css">
	.st0{fill:#666F74;}
</style>
<g>
	<path class="st0" d="M75.6,102.03c-6.78,0-13.55-2.58-18.7-7.74L46.54,83.95c-1.76-1.76-1.76-4.61,0-6.36
		c1.76-1.76,4.61-1.76,6.36,0l10.35,10.35c6.81,6.8,17.88,6.8,24.68,0c6.8-6.8,6.8-17.88,0-24.68L72.41,47.73
		c-3.3-3.3-7.68-5.11-12.34-5.11s-9.04,1.81-12.34,5.11c-1.76,1.76-4.61,1.76-6.36,0c-1.76-1.76-1.76-4.61,0-6.36
		c5-5,11.64-7.75,18.71-7.75s13.71,2.75,18.71,7.75L94.3,56.89c10.31,10.31,10.31,27.1,0,37.41
		C89.14,99.45,82.37,102.03,75.6,102.03z"/>
</g>
<g>
	<path class="st0" d="M41.96,68.41c-7.07,0-13.71-2.75-18.7-7.75L7.73,45.14c-10.31-10.31-10.31-27.09,0-37.41
		c10.31-10.31,27.1-10.31,37.41,0l11.21,11.21c1.76,1.76,1.76,4.61,0,6.36c-1.76,1.76-4.61,1.76-6.36,0L38.78,14.1
		c-6.81-6.8-17.88-6.8-24.68,0c-6.8,6.81-6.8,17.88,0,24.68L29.62,54.3c3.3,3.3,7.68,5.11,12.34,5.11s9.05-1.81,12.34-5.11
		c1.76-1.76,4.61-1.76,6.36,0c1.76,1.76,1.76,4.61,0,6.36C55.67,65.66,49.03,68.41,41.96,68.41z"/>
</g>
<g>
	<path class="st0" d="M75.6,49.05c-1.15,0-2.3-0.44-3.18-1.32c-3.3-3.3-7.68-5.11-12.34-5.11s-9.04,1.81-12.34,5.11
		c-1.76,1.76-4.61,1.76-6.36,0c-1.76-1.76-1.76-4.61,0-6.36c5-5,11.64-7.75,18.71-7.75s13.71,2.75,18.71,7.75
		c1.76,1.76,1.76,4.61,0,6.36C77.9,48.61,76.75,49.05,75.6,49.05z"/>
</g>
</svg>
