<?xml version="1.0" encoding="utf-8"?>
<!-- Generator: Adobe Illustrator 23.0.1, SVG Export Plug-In . SVG Version: 6.00 Build 0)  -->
<svg version="1.1" id="Layer_1" xmlns="http://www.w3.org/2000/svg" xmlns:xlink="http://www.w3.org/1999/xlink" x="0px" y="0px"
	 viewBox="0 0 96 132" style="enable-background:new 0 0 96 132;" xml:space="preserve">
<style type="text/css">
	.st0{fill:#677075;}
</style>
<g>
	<path class="st0" d="M66,123H30c-1.66,0-3-1.34-3-3V60H3c-1.16,0-2.22-0.67-2.72-1.73s-0.33-2.3,0.41-3.19l45-54
		C46.27,0.4,47.11,0,48,0s1.73,0.4,2.3,1.08l45,54c0.75,0.89,0.91,2.14,0.41,3.19S94.16,60,93,60H69v60C69,121.66,67.66,123,66,123z
		 M33,117h30V57c0-1.66,1.34-3,3-3h20.59L48,7.69L9.41,54H30c1.66,0,3,1.34,3,3V117z"/>
</g>
<g>
	<path class="st0" d="M57,132H39c-0.8,0-1.56-0.32-2.12-0.88l-9-9c-1.17-1.17-1.17-3.07,0-4.24c1.17-1.17,3.07-1.17,4.24,0
		l8.12,8.12h15.52l8.12-8.12c1.17-1.17,3.07-1.17,4.24,0c1.17,1.17,1.17,3.07,0,4.24l-9,9C58.56,131.68,57.8,132,57,132z"/>
</g>
<g>
	<path class="st0" d="M30,69H12c-0.8,0-1.56-0.32-2.12-0.88l-9-9c-1.17-1.17-1.17-3.07,0-4.24c1.17-1.17,3.07-1.17,4.24,0L13.24,63
		H30c1.66,0,3,1.34,3,3S31.66,69,30,69z"/>
</g>
<g>
	<path class="st0" d="M84,69H66c-1.66,0-3-1.34-3-3s1.34-3,3-3h16.76l8.12-8.12c1.17-1.17,3.07-1.17,4.24,0
		c1.17,1.17,1.17,3.07,0,4.24l-9,9C85.56,68.68,84.8,69,84,69z"/>
</g>
</svg>
