<?xml version="1.0" encoding="utf-8"?>
<!-- Generator: Adobe Illustrator 23.0.1, SVG Export Plug-In . SVG Version: 6.00 Build 0)  -->
<svg version="1.1" id="Layer_1" xmlns="http://www.w3.org/2000/svg" xmlns:xlink="http://www.w3.org/1999/xlink" x="0px" y="0px"
	 viewBox="0 0 111 111" style="enable-background:new 0 0 111 111;" xml:space="preserve">
<style type="text/css">
	.st0{fill:#FFFFFF;}
	.st1{fill:#666F74;}
	.st2{fill:#B9C2C6;}
</style>
<g>
	<g>
		<path class="st0" d="M5.5,2C3.3,2,1,3.3,1,5.5v82C1,89.7,3.3,92,5.5,92H70c2.2,0,4.81,1.36,5.81,3.32l5.38,10.49
			c0.99,1.96,2.62,1.9,3.62-0.06l5.38-10.4C91.19,93.39,93.8,92,96,92h9.5c2.2,0,3.5-2.3,3.5-4.5v-82c0-2.2-1.3-3.5-3.5-3.5H5.5z"/>
	</g>
	<g>
		<path class="st1" d="M83,108.65c-1.26,0-2.41-0.84-3.15-2.29l-5.38-10.61C73.73,94.28,71.64,93,70,93H5.5C2.47,93,0,90.53,0,87.5
			v-82C0,2.47,2.47,0,5.5,0h100c3.03,0,5.5,2.47,5.5,5.5v82c0,3.03-2.47,5.5-5.5,5.5H96c-1.64,0-3.73,1.28-4.47,2.75l-5.38,10.62
			C85.41,107.82,84.26,108.65,83,108.65z M5.5,3C4.12,3,3,4.12,3,5.5v82C3,88.88,4.12,90,5.5,90H70c2.76,0,5.9,1.93,7.15,4.39
			L82.53,105c0.24,0.47,0.46,0.63,0.51,0.66c-0.03-0.02,0.19-0.19,0.43-0.66l5.38-10.62C90.1,91.93,93.24,90,96,90h9.5
			c1.38,0,2.5-1.12,2.5-2.5v-82c0-1.38-1.12-2.5-2.5-2.5H5.5z"/>
	</g>
</g>
<g>
	<path class="st1" d="M101,111H56c-0.83,0-1.5-0.67-1.5-1.5s0.67-1.5,1.5-1.5h45c0.83,0,1.5,0.67,1.5,1.5S101.83,111,101,111z"/>
</g>
<g>
	<path class="st1" d="M47,111H29c-0.83,0-1.5-0.67-1.5-1.5s0.67-1.5,1.5-1.5h18c0.83,0,1.5,0.67,1.5,1.5S47.83,111,47,111z"/>
</g>
<g>
	<line x1="20" y1="28" x2="83" y2="28"/>
	<path class="st2" d="M83,29.5H20c-0.83,0-1.5-0.67-1.5-1.5s0.67-1.5,1.5-1.5h63c0.83,0,1.5,0.67,1.5,1.5S83.83,29.5,83,29.5z"/>
</g>
<g>
	<line x1="20" y1="46" x2="65" y2="46"/>
	<path class="st2" d="M65,47.5H20c-0.83,0-1.5-0.67-1.5-1.5s0.67-1.5,1.5-1.5h45c0.83,0,1.5,0.67,1.5,1.5S65.83,47.5,65,47.5z"/>
</g>
<g>
	<line x1="20" y1="64" x2="74" y2="64"/>
	<path class="st2" d="M74,65.5H20c-0.83,0-1.5-0.67-1.5-1.5s0.67-1.5,1.5-1.5h54c0.83,0,1.5,0.67,1.5,1.5S74.83,65.5,74,65.5z"/>
</g>
</svg>
