<?xml version="1.0" encoding="utf-8"?>
<!-- Generator: Adobe Illustrator 23.0.1, SVG Export Plug-In . SVG Version: 6.00 Build 0)  -->
<svg version="1.1" id="Layer_1" xmlns="http://www.w3.org/2000/svg" xmlns:xlink="http://www.w3.org/1999/xlink" x="0px" y="0px"
	 viewBox="0 0 111 111" style="enable-background:new 0 0 111 111;" xml:space="preserve">
<style type="text/css">
	.st0{fill:#FFFFFF;}
	.st1{fill:#666F74;}
	.st2{fill:#B9C2C6;}
</style>
<g>
	<g>
		<path class="st0" d="M5.5,1.5c-2.2,0-4,1.8-4,4v82c0,2.2,1.8,4,4,4H70c2.2,0,4.81,1.61,5.81,3.57l5.38,10.61
			c0.99,1.96,2.62,1.96,3.62,0l5.38-10.61c0.99-1.96,3.61-3.57,5.81-3.57h9.5c2.2,0,4-1.8,4-4v-82c0-2.2-1.8-4-4-4H5.5z"/>
	</g>
	<g>
		<path class="st1" d="M83,108.65c-1.26,0-2.41-0.84-3.15-2.29l-5.38-10.61C73.73,94.28,71.64,93,70,93H5.5C2.47,93,0,90.53,0,87.5
			v-82C0,2.47,2.47,0,5.5,0h100c3.03,0,5.5,2.47,5.5,5.5v82c0,3.03-2.47,5.5-5.5,5.5H96c-1.64,0-3.73,1.28-4.47,2.75l-5.38,10.62
			C85.41,107.82,84.26,108.65,83,108.65z M5.5,3C4.12,3,3,4.12,3,5.5v82C3,88.88,4.12,90,5.5,90H70c2.76,0,5.9,1.93,7.15,4.39
			L82.53,105c0.24,0.47,0.46,0.63,0.51,0.66c-0.03-0.02,0.19-0.19,0.43-0.66l5.38-10.62C90.1,91.93,93.24,90,96,90h9.5
			c1.38,0,2.5-1.12,2.5-2.5v-82c0-1.38-1.12-2.5-2.5-2.5H5.5z"/>
	</g>
</g>
<g>
	<path class="st1" d="M101,111H66c-0.83,0-1.5-0.67-1.5-1.5s0.67-1.5,1.5-1.5h35c0.83,0,1.5,0.67,1.5,1.5S101.83,111,101,111z"/>
</g>
<g>
	<path class="st1" d="M57,111H29c-0.83,0-1.5-0.67-1.5-1.5s0.67-1.5,1.5-1.5h28c0.83,0,1.5,0.67,1.5,1.5S57.83,111,57,111z"/>
</g>
<g>
	<g>
		<path class="st2" d="M52.36,54.22c0-1.36,0.25-2.59,0.74-3.69c0.49-1.1,1.09-2.04,1.79-2.84c0.7-0.79,1.64-1.74,2.81-2.84
			c1.44-1.32,2.5-2.47,3.21-3.43c0.7-0.96,1.05-2.09,1.05-3.38c0-3.52-1.83-5.28-5.5-5.28c-1.82,0-3.18,0.53-4.09,1.59
			c-0.91,1.06-1.53,2.5-1.87,4.31l-6.01-1.65c0.3-2.72,1.56-4.95,3.77-6.69c2.21-1.74,5.04-2.61,8.48-2.61
			c3.52,0,6.4,0.91,8.65,2.72c2.25,1.81,3.38,4.31,3.38,7.49c0,1.66-0.27,3.08-0.79,4.25c-0.53,1.17-1.16,2.14-1.9,2.89
			c-0.74,0.76-1.73,1.63-2.98,2.61c-1.59,1.21-2.77,2.33-3.55,3.35c-0.78,1.02-1.16,2.35-1.16,3.97v1.08h-6.01V54.22z M51.34,64.38
			v-0.74c0-2.53,1.27-3.8,3.8-3.8h0.68c2.53,0,3.8,1.27,3.8,3.8v0.74c0,2.53-1.27,3.8-3.8,3.8h-0.68
			C52.6,68.18,51.34,66.91,51.34,64.38z"/>
	</g>
</g>
</svg>
